<svg xmlns="http://www.w3.org/2000/svg" width="295.824" height="295.824" viewBox="0 0 295.824 295.824"><defs><style>.a{fill:#e3e4e4;}.b{fill:#f1f2f3;}.c{fill:#d1d1d1;}.d{fill:#9e9e9e;}</style></defs><circle class="a" cx="147.912" cy="147.912" r="147.912"/><g transform="translate(-1738.298 -339)"><path class="b" d="M1935.845,405.788h-81.7a15.49,15.49,0,0,0-15.412,15.413v128.77h97.116a15.49,15.49,0,0,0,15.413-15.412V421.2A15.491,15.491,0,0,0,1935.845,405.788Z"/><path class="b" d="M1836.74,424.018a15.491,15.491,0,0,0-15.413,15.413V552.789A15.49,15.49,0,0,0,1836.74,568.2h81.7a15.489,15.489,0,0,0,15.412-15.412V455.672l-28.173-31.654Z"/></g><path class="c" d="M1905.683,455.672h28.174l-28.174-31.654Z" transform="translate(-1738.298 -339)"/><g transform="translate(-1738.298 -339)"><path class="d" d="M1935.845,402.639h-81.7a18.57,18.57,0,0,0-18.561,18.23,18.526,18.526,0,0,0-17.567,18.4V552.623a18.53,18.53,0,0,0,18.561,18.561h81.7a18.57,18.57,0,0,0,18.562-18.23,18.525,18.525,0,0,0,17.567-18.395V421.2A18.532,18.532,0,0,0,1935.845,402.639Zm-5.137,150.15a12.236,12.236,0,0,1-12.264,12.263h-81.7a12.236,12.236,0,0,1-12.264-12.263V439.431a12.236,12.236,0,0,1,12.264-12.264h65.96v28.505a3.146,3.146,0,0,0,3.148,3.149h25.025v93.968Zm-21.876-100.266V432.139l18.23,20.384Zm39.443,82.036a12.286,12.286,0,0,1-11.27,12.263v-91.15c0-.331-.165-.828-.165-1.16,0-.166-.166-.166-.166-.331-.166-.166-.166-.332-.332-.5l-28.173-31.653h0c-.166-.166-.5-.332-.663-.5-.166,0-.166-.165-.332-.165a3.063,3.063,0,0,0-1.16-.332h-64.136a12.419,12.419,0,0,1,12.263-12.1h81.7a12.236,12.236,0,0,1,12.264,12.264V534.559Z"/><path class="d" d="M1867.565,452.523H1840.22a3.149,3.149,0,0,0,0,6.3h27.18a3.151,3.151,0,0,0,.165-6.3Z"/><path class="d" d="M1867.565,533.73H1840.22a3.149,3.149,0,0,0,0,6.3h27.18a3.147,3.147,0,0,0,3.149-3.149A3.116,3.116,0,0,0,1867.565,533.73Z"/><path class="d" d="M1913.306,473.074h-72.92a3.148,3.148,0,1,0,0,6.3h72.92a3.146,3.146,0,0,0,3.149-3.149A3.385,3.385,0,0,0,1913.306,473.074Z"/><path class="d" d="M1913.306,488.321h-72.92a3.148,3.148,0,1,0,0,6.3h72.92a3.147,3.147,0,0,0,3.149-3.149A3.385,3.385,0,0,0,1913.306,488.321Z"/><path class="d" d="M1913.306,503.568h-72.92a3.148,3.148,0,1,0,0,6.3h72.92a3.146,3.146,0,0,0,3.149-3.149A3.385,3.385,0,0,0,1913.306,503.568Z"/><path class="d" d="M1913.306,518.814h-72.92a3.149,3.149,0,0,0,0,6.3h72.92a3.146,3.146,0,0,0,3.149-3.149A3.386,3.386,0,0,0,1913.306,518.814Z"/></g><circle class="a" cx="38.106" cy="38.106" r="38.106" transform="translate(215.469 207.822)"/><path class="b" d="M1991.872,626.763a41.835,41.835,0,1,1,41.835-41.835A41.882,41.882,0,0,1,1991.872,626.763Zm0-76.212a34.378,34.378,0,1,0,34.378,34.377A34.417,34.417,0,0,0,1991.872,550.551Z" transform="translate(-1738.298 -339)"/><rect class="d" width="32.556" height="32.556" rx="8.87" transform="translate(237.296 229.65)"/><path class="b" d="M1987.891,593.2a1.5,1.5,0,0,1-1.061-.439l-5.575-5.575a1.5,1.5,0,0,1,2.121-2.121l4.515,4.514,12.478-12.478a1.5,1.5,0,0,1,2.121,2.121l-13.539,13.539A1.5,1.5,0,0,1,1987.891,593.2Z" transform="translate(-1738.298 -339)"/></svg>