<svg xmlns="http://www.w3.org/2000/svg" width="24.139" height="20.45" viewBox="0 0 24.139 20.45">
    <defs>
        <style>.a{fill:#22b07d;stroke:#22b07d;stroke-width:0.3px;}</style>
    </defs>
    <g transform="translate(0.15 0.15)">
        <path class="a"
              d="M-911.427-10.085c0,.5.006.933,0,1.37a1.4,1.4,0,0,1-1.446,1.452c-.437.007-.875,0-1.374,0,0,.42,0,.8,0,1.175a1.483,1.483,0,0,1-1.68,1.675q-6.622.005-13.246,0c-.553,0-1.107-.008-1.66.007a1.475,1.475,0,0,1-1.581-1.578c.045-3.818.037-7.638,0-11.457A1.442,1.442,0,0,1-931-18.876c.451,0,.9,0,1.4,0,0-.335.02-.616,0-.894-.117-1.345.534-2.054,1.952-1.932.265.023.534,0,.873,0,0-.426,0-.816,0-1.207a1.467,1.467,0,0,1,1.622-1.644c1.533-.007,3.067,0,4.6,0a1.545,1.545,0,0,1,1.551.973c.18.4.408.782.574,1.188a.556.556,0,0,0,.613.381c2.5-.012,5-.007,7.5-.006,1.215,0,1.744.524,1.744,1.733q0,4.237,0,8.476c0,1.184-.538,1.72-1.714,1.722Zm-19.582-7.375c-.012.139-.021.2-.021.253,0,3.662,0,7.325-.01,10.986,0,.336.122.4.423.395q7.281-.013,14.563,0c.3,0,.39-.086.389-.385q-.012-4.109,0-8.219c0-.383-.1-.508-.5-.505-2.526.018-5.053,0-7.58.011a1.533,1.533,0,0,1-1.519-.952c-.193-.41-.416-.807-.6-1.223a.547.547,0,0,0-.586-.368c-1.32.015-2.64.008-3.96.01Zm18.168-.3h-.473c-2.54,0-5.081-.007-7.623,0a1.5,1.5,0,0,1-1.46-.907c-.209-.418-.441-.828-.615-1.261a.577.577,0,0,0-.652-.386c-1.391.015-2.782.006-4.174.007-.11,0-.218.015-.342.024v1.408c.708,0,1.386-.007,2.064,0a1.451,1.451,0,0,1,1.392.876c.2.422.428.833.61,1.263a.593.593,0,0,0,.647.405c2.484-.015,4.968-.008,7.452-.007,1.247,0,1.764.513,1.765,1.747q0,2.705,0,5.409v.49h1.408Zm2.826-2.829h-.5c-2.5,0-5-.008-7.5,0a1.583,1.583,0,0,1-1.587-.988c-.189-.412-.421-.806-.6-1.223a.5.5,0,0,0-.557-.336c-1.192.014-2.385.007-3.577.008-1.085,0-1.078,0-1.033,1.1.01.261.1.343.353.337.6-.013,1.193,0,1.789,0a1.375,1.375,0,0,1,1.3.8c.219.429.447.857.629,1.3a.614.614,0,0,0,.681.411c2.528-.014,5.055-.011,7.582-.006a1.45,1.45,0,0,1,1.6,1.613q0,2.791,0,5.58v.454h1.411Z"
              transform="translate(932.415 24.553)"/>
        <path class="a"
              d="M-920.85-10.512c0-.542.225-.846.646-.884a.714.714,0,0,1,.744.561.964.964,0,0,1-.447,1.2C-920.428-9.438-920.854-9.834-920.85-10.512Z"
              transform="translate(934.635 27.078)"/>
        <path class="a"
              d="M-922.56-10.477c0-.595.241-.917.691-.919.422,0,.7.319.708.826.012.619-.226.967-.675.982S-922.558-9.907-922.56-10.477Z"
              transform="translate(934.307 27.079)"/>
    </g>
</svg>